<?xml version="1.0" standalone="no"?>
<!DOCTYPE svg PUBLIC "-//W3C//DTD SVG 20010904//EN"
 "http://www.w3.org/TR/2001/REC-SVG-20010904/DTD/svg10.dtd">
<svg version="1.0" xmlns="http://www.w3.org/2000/svg"
 width="118.000000pt" height="118.000000pt" viewBox="0 0 118.000000 118.000000"
 preserveAspectRatio="xMidYMid meet">
<metadata>
Created by potrace 1.11, written by Peter Selinger 2001-2013
</metadata>
<g transform="translate(0.000000,118.000000) scale(0.100000,-0.100000)"
fill="#000000" stroke="none">
<path d="M67 1082 c-55 -7 -73 -64 -52 -166 8 -39 17 -89 21 -111 3 -22 9 -59
14 -83 4 -24 8 -122 8 -218 0 -204 6 -230 60 -240 21 -4 48 -2 66 6 107 43
201 70 269 76 55 5 77 3 77 -5 0 -27 -112 -222 -131 -229 -5 -2 -7 -8 -4 -13
3 -4 36 11 73 34 109 69 210 110 303 121 50 7 87 -8 207 -86 34 -22 65 -39 67
-36 3 2 -7 20 -20 39 -27 35 -21 48 14 30 27 -15 53 -14 77 3 17 13 19 28 20
148 1 132 7 197 25 293 21 106 21 123 -1 145 -25 25 -52 25 -143 0 -39 -11
-101 -23 -136 -26 l-64 -7 6 46 c4 25 18 78 32 118 52 149 26 173 -137 129
-173 -46 -294 -45 -488 6 -112 29 -126 31 -163 26z m223 -117 c110 -19 304
-15 408 8 91 20 97 13 72 -83 -11 -41 -20 -85 -20 -97 0 -31 -7 -32 -75 -17
-105 24 -125 26 -141 13 -10 -8 -65 -12 -181 -13 -164 -1 -166 -1 -169 -23 -2
-13 -1 -24 4 -24 4 -1 81 -2 170 -3 163 -1 164 -1 177 -26 8 -14 14 -28 15
-32 0 -4 -82 -9 -182 -10 -179 -3 -181 -3 -184 -25 -2 -13 2 -23 9 -24 6 -1
93 -2 191 -3 l180 -1 3 -32 4 -33 -192 -2 c-191 -3 -192 -3 -195 -25 -3 -18 1
-23 19 -23 12 -1 100 -1 195 -1 186 0 184 1 163 -54 -7 -17 -19 -20 -92 -21
-74 -2 -140 -16 -256 -52 -59 -19 -63 -6 -65 163 0 83 -5 179 -9 215 -9 64
-11 82 -24 171 -8 55 11 83 54 75 14 -3 69 -12 121 -21z m370 -239 c19 -3 46
-8 60 -11 63 -13 207 -6 304 15 25 6 47 5 59 -2 20 -10 20 -13 0 -118 -2 -14
-7 -92 -10 -175 -3 -82 -9 -155 -15 -162 -10 -13 -12 -12 -111 16 -110 32
-233 21 -359 -33 -21 -9 -40 -16 -43 -16 -3 0 6 22 19 48 56 111 71 245 40
368 -13 54 -14 68 -3 75 7 4 16 6 19 4 3 -2 21 -6 40 -9z"/>
<path d="M186 890 c-1 -3 -1 -11 0 -17 1 -7 2 -17 3 -21 0 -5 73 -8 161 -8
l160 1 0 25 0 25 -161 0 c-88 0 -162 -2 -163 -5z"/>
<path d="M796 663 c-3 -3 -2 -11 1 -19 4 -11 31 -14 124 -14 113 0 119 1 119
20 0 19 -6 20 -120 19 -66 -1 -122 -4 -124 -6z"/>
<path d="M681 571 c-7 -5 -10 -14 -7 -20 5 -7 66 -11 187 -11 171 0 179 1 179
20 0 18 -8 19 -173 19 -95 0 -179 -4 -186 -8z"/>
<path d="M720 470 c0 -19 7 -20 160 -20 153 0 160 1 160 20 0 19 -7 20 -160
20 -153 0 -160 -1 -160 -20z"/>
<path d="M750 380 c0 -19 7 -20 145 -20 138 0 145 1 145 20 0 19 -7 20 -145
20 -138 0 -145 -1 -145 -20z"/>
</g>
</svg>
